# xmcd CD database file
#
# Track frame offsets:
#	180
#	57657
#	74207
#	119422
#	156940
#	210880
#	244615
#
# Disc length: 3367 seconds
#
# Revision: 0
# Processed by: cddbd v1.5.2PL0 Copyright (c) Steve Scherf et al.
# Submitted via: CDex 1.51
#
DISCID=670d2507
DTITLE=Emmanuel Bex - ROUGE ET OR
DYEAR=1900
DGENRE=Jazz
TTITLE0=Rouge et Or
TTITLE1=Une valse
TTITLE2=Zouzou
TTITLE3=Enfance
TTITLE4=Pour Larry Young
TTITLE5=Mistery band
TTITLE6=You've changed
EXTD=
EXTT0=
EXTT1=
EXTT2=
EXTT3=
EXTT4=
EXTT5=
EXTT6=
PLAYORDER=
